<?xml version="1.0" encoding="UTF-8"?>
<svg id="Layer_1" xmlns="http://www.w3.org/2000/svg" version="1.1" viewBox="0 0 80 38">
  <!-- Generator: Adobe Illustrator 30.3.0, SVG Export Plug-In . SVG Version: 2.1.3 Build 182)  -->
  <defs>
    <style>
      .st0 {
        fill: none;
      }

      .st1 {
        fill: #ff2800;
      }
    </style>
  </defs>
  <path class="st0" d="M76.7,11.1c0-1.7,1.2-3.2,3.2-3.2s3.3,1.5,3.3,3.2-1.2,3.2-3.3,3.2-3.2-1.5-3.2-3.2ZM81.6,11.1c0-1-.6-1.8-1.6-1.8s-1.6.8-1.6,1.8.6,1.8,1.6,1.8,1.6-.8,1.6-1.8Z"/>
  <g>
    <g>
      <path class="st1" d="M35.7,18.1l-1.7-3h-1.3v3h-1.8v-8.5h4c1.8,0,2.8,1.2,2.8,2.7s-.9,2.3-1.9,2.5l1.9,3.2h-2.1ZM34.6,11.1h-1.9v2.3h1.9c.7,0,1.3-.5,1.3-1.2s-.5-1.2-1.3-1.2Z"/>
      <path class="st1" d="M38.6,15c0-1.7,1.2-3.2,3.2-3.2s3.3,1.5,3.3,3.2-1.2,3.2-3.3,3.2-3.2-1.5-3.2-3.2ZM43.4,15c0-1-.6-1.8-1.6-1.8s-1.6.8-1.6,1.8.6,1.8,1.6,1.8,1.6-.8,1.6-1.8Z"/>
      <path class="st1" d="M47.1,18.5c.5.5,1.1.8,1.9.8s1.7-.3,1.7-1.6v-.6c-.5.6-1.1,1-1.9,1-1.5,0-2.7-1.1-2.7-3.1s1.2-3.1,2.7-3.1,1.4.3,1.9.9v-.8h1.6v5.7c0,2.3-1.8,2.9-3.3,2.9s-1.9-.2-2.6-.9l.7-1.2ZM50.7,13.9c-.3-.4-.9-.7-1.4-.7-.9,0-1.6.6-1.6,1.7s.6,1.7,1.6,1.7,1.1-.3,1.4-.7v-2Z"/>
      <path class="st1" d="M57,11.8c1.8,0,3.1,1.4,3.1,3.4v.4h-4.6c.1.8.7,1.4,1.8,1.4s1.2-.2,1.6-.6l.7,1c-.6.6-1.6.9-2.5.9-1.9,0-3.3-1.3-3.3-3.2s1.3-3.2,3.2-3.2ZM55.5,14.4h3c0-.6-.4-1.4-1.5-1.4s-1.4.8-1.5,1.4Z"/>
      <path class="st1" d="M61.5,18.1v-6.1h1.6v.8c.4-.5,1.2-1,2-1v1.6c-.1,0-.3,0-.4,0-.5,0-1.2.3-1.5.7v4.1h-1.6Z"/>
      <path class="st1" d="M30.9,28.4v-8.5h6v1.6h-4.2v1.8h4.1v1.6h-4.1v2h4.2v1.6h-6Z"/>
      <path class="st1" d="M38.6,26.5c.4.4,1.4.8,2.1.8s1-.2,1-.6-.5-.6-1.2-.7c-1.1-.2-2.4-.5-2.4-1.9s.9-1.9,2.5-1.9,1.9.4,2.5.8l-.6,1.1c-.4-.4-1.1-.7-1.8-.7s-1,.2-1,.6.5.5,1.2.7c1.1.2,2.5.5,2.5,2s-1,2-2.7,2-2.1-.4-2.7-1l.7-1.1Z"/>
      <path class="st1" d="M47.5,22.1c1.3,0,2,.5,2.4,1.1l-1.1,1c-.3-.4-.7-.7-1.3-.7-1,0-1.7.7-1.7,1.8s.7,1.8,1.7,1.8,1-.3,1.3-.7l1.1,1c-.4.6-1.2,1.1-2.4,1.1-1.9,0-3.3-1.3-3.3-3.2s1.4-3.2,3.3-3.2Z"/>
      <path class="st1" d="M50.7,25.3c0-1.7,1.2-3.2,3.2-3.2s3.3,1.5,3.3,3.2-1.2,3.2-3.3,3.2-3.2-1.5-3.2-3.2ZM55.5,25.3c0-1-.6-1.8-1.6-1.8s-1.6.8-1.6,1.8.6,1.8,1.6,1.8,1.6-.8,1.6-1.8Z"/>
      <path class="st1" d="M58.5,28.4v-8.5h1.6v3.1c.5-.6,1.2-.9,1.9-.9,1.6,0,2.7,1.2,2.7,3.2s-1.2,3.2-2.7,3.2-1.4-.3-1.9-.9v.8h-1.6ZM60.2,26.4c.3.4.9.7,1.4.7.9,0,1.6-.7,1.6-1.8s-.6-1.8-1.6-1.8-1.1.3-1.4.7v2.2Z"/>
      <path class="st1" d="M69.8,28.4v-.6c-.4.5-1.1.8-1.9.8s-2.1-.7-2.1-2,1.2-2,2.1-2,1.5.3,1.9.8v-.9c0-.6-.5-1-1.3-1s-1.3.2-1.8.7l-.6-1.1c.8-.7,1.7-1,2.7-1,1.4,0,2.7.6,2.7,2.3v4h-1.6ZM69.8,26.2c-.3-.4-.8-.5-1.3-.5s-1.2.3-1.2.9.5.9,1.2.9,1-.2,1.3-.5v-.8Z"/>
      <path class="st1" d="M73.2,28.4v-6.1h1.6v.8c.4-.5,1.2-1,2-1v1.6c-.1,0-.3,0-.4,0-.5,0-1.2.3-1.5.7v4.1h-1.6Z"/>
    </g>
    <g>
      <path class="st1" d="M25.1,24.9c-.6-.2-1.2,0-1.4.7-1.2,3.2-6.1,4.6-10.1,4.6-1.7,0-3.2-.3-4.2-.7,3.2-.3,7.4-1.5,11.6-5,3.2-2.6,5.2-6.8,5.2-10.8,0-3-1-5.6-3-7.4-1.3-1.2-3.5-1.7-5.7-1.3-2.8.4-6.8,2.2-10.7,8.5-3,4.9-4.1,8.9-3.3,12.4.1.6.7,1,1.3.9.6-.1,1-.7.9-1.3-.6-2.8.4-6.4,3-10.7,3.6-5.8,7.2-7.1,9.1-7.4,1.9-.3,3.3.2,3.9.8,1.5,1.3,2.3,3.3,2.3,5.6,0,3.4-1.7,6.8-4.4,9.1-5,4.2-9.9,4.7-13.1,4.5-.4,0-.7.1-1,.4s-.3.7-.2,1.1c.9,2.6,4.8,3.6,8.2,3.7,0,0,.2,0,.2,0,4.9,0,10.4-1.9,11.9-6.1.2-.6,0-1.2-.7-1.4Z"/>
      <path class="st1" d="M4.6,30c-.6,0-1.1.5-1.1,1.1v.9c0,.6.5,1.1,1.1,1.1s1.1-.5,1.1-1.1v-.9c0-.6-.5-1.1-1.1-1.1Z"/>
    </g>
  </g>
  <rect class="st0" x="-3.2" y="-1.6" width="86.5" height="41.1"/>
  <rect class="st0" x="3.3" y="4.9" width="73.5" height="28.2"/>
</svg>