<?xml version="1.0" encoding="UTF-8"?>
<svg id="Layer_1" xmlns="http://www.w3.org/2000/svg" version="1.1" viewBox="0 0 120 32">
  <!-- Generator: Adobe Illustrator 30.3.0, SVG Export Plug-In . SVG Version: 2.1.3 Build 182)  -->
  <defs>
    <style>
      .st0 {
        fill: "currentColor";
      }
    </style>
  </defs>
  <path class="st0" d="M39,22.3l-1.2-2.1h-.9v2.1h-1.3v-5.9h2.8c1.2,0,2,.8,2,1.9s-.7,1.6-1.3,1.8l1.3,2.3h-1.5ZM38.2,17.5h-1.3v1.6h1.3c.5,0,.9-.3.9-.8s-.4-.8-.9-.8Z"/>
  <path class="st0" d="M44.1,16.3c1.8,0,3.1,1.3,3.1,3.1s-1.3,3.1-3.1,3.1-3.1-1.3-3.1-3.1,1.3-3.1,3.1-3.1ZM44.1,17.4c-1.1,0-1.8.8-1.8,2s.7,2,1.8,2,1.8-.8,1.8-2-.7-2-1.8-2Z"/>
  <path class="st0" d="M51,16.3c1.2,0,2,.6,2.5,1.3l-1.1.6c-.3-.4-.8-.7-1.4-.7-1.1,0-1.9.8-1.9,2s.8,2,1.9,2,1-.2,1.3-.5v-.7h-1.6v-1.1h2.8v2.3c-.6.7-1.5,1.1-2.5,1.1-1.7,0-3.2-1.2-3.2-3.1s1.4-3.1,3.2-3.1Z"/>
  <path class="st0" d="M54.6,22.3v-5.9h4.2v1.1h-2.9v1.3h2.9v1.1h-2.9v1.4h2.9v1.1h-4.2Z"/>
  <path class="st0" d="M63.1,22.3l-1.2-2.1h-.9v2.1h-1.3v-5.9h2.8c1.2,0,2,.8,2,1.9s-.7,1.6-1.3,1.8l1.3,2.3h-1.5ZM62.4,17.5h-1.3v1.6h1.3c.5,0,.9-.3.9-.8s-.4-.8-.9-.8Z"/>
  <path class="st0" d="M67.8,22.3v-5.9h4.2v1.1h-2.9v1.3h2.9v1.1h-2.9v1.4h2.9v1.1h-4.2Z"/>
  <path class="st0" d="M73.2,20.5c.4.4,1.1.8,1.9.8s1-.3,1-.7-.5-.6-1.2-.8c-1-.2-2.2-.5-2.2-1.8s.9-1.8,2.3-1.8,1.7.3,2.3.8l-.7.9c-.5-.4-1.1-.7-1.7-.7s-.9.2-.9.6.5.5,1.2.7c1,.2,2.2.5,2.2,1.8s-.8,1.9-2.4,1.9-2-.4-2.5-.9l.7-1Z"/>
  <path class="st0" d="M78,19.4c0-1.8,1.4-3.1,3.1-3.1s2.1.7,2.5,1.5l-1.1.5c-.2-.5-.8-.9-1.4-.9-1,0-1.8.8-1.8,2s.8,2,1.8,2,1.2-.4,1.4-.9l1.1.5c-.4.7-1.2,1.5-2.5,1.5s-3.1-1.2-3.1-3.1Z"/>
  <path class="st0" d="M87.2,16.3c1.8,0,3.1,1.3,3.1,3.1s-1.3,3.1-3.1,3.1-3.1-1.3-3.1-3.1,1.3-3.1,3.1-3.1ZM87.2,17.4c-1.1,0-1.8.8-1.8,2s.7,2,1.8,2,1.8-.8,1.8-2-.7-2-1.8-2Z"/>
  <path class="st0" d="M91.2,22.3v-5.9h3.1c1.1,0,1.7.7,1.7,1.5s-.5,1.2-1,1.4c.6,0,1.1.7,1.1,1.5s-.6,1.6-1.7,1.6h-3.2ZM92.5,18.8h1.6c.4,0,.7-.3.7-.7s-.3-.7-.7-.7h-1.6v1.3ZM92.5,21.2h1.6c.5,0,.8-.3.8-.7s-.3-.7-.8-.7h-1.6v1.4Z"/>
  <path class="st0" d="M101.3,22.3l-.4-1h-2.7l-.4,1h-1.4l2.3-5.9h1.6l2.3,5.9h-1.4ZM99.6,17.5l-1,2.7h2l-1-2.7Z"/>
  <path class="st0" d="M106.6,22.3l-1.2-2.1h-.9v2.1h-1.3v-5.9h2.8c1.2,0,2,.8,2,1.9s-.7,1.6-1.3,1.8l1.3,2.3h-1.5ZM105.8,17.5h-1.3v1.6h1.3c.5,0,.9-.3.9-.8s-.4-.8-.9-.8Z"/>
  <path class="st0" d="M35.6,29.4v-5.2h2.1c1.1,0,1.6.7,1.6,1.6s-.6,1.6-1.6,1.6h-1.5v2.1h-.7ZM37.7,24.8h-1.4v2h1.4c.6,0,1-.4,1-1s-.4-1-1-1Z"/>
  <path class="st0" d="M39.9,29.4v-3.8h.6v.6c.3-.4.7-.7,1.3-.7v.6c0,0-.1,0-.2,0-.4,0-.9.3-1,.6v2.7h-.6Z"/>
  <path class="st0" d="M42,27.5c0-1.1.7-2,1.9-2s1.9.9,1.9,2-.7,2-1.9,2-1.9-.9-1.9-2ZM45.2,27.5c0-.8-.4-1.5-1.3-1.5s-1.3.7-1.3,1.5.5,1.5,1.3,1.5,1.3-.7,1.3-1.5Z"/>
  <path class="st0" d="M49.2,29.4v-.6c-.3.4-.7.7-1.3.7-1,0-1.7-.8-1.7-2s.7-2,1.7-2,1,.3,1.3.7v-2h.6v5.2h-.6ZM49.2,26.7c-.2-.3-.7-.6-1.1-.6-.8,0-1.2.6-1.2,1.5s.5,1.5,1.2,1.5.9-.3,1.1-.6v-1.7Z"/>
  <path class="st0" d="M53.3,29.4v-.5c-.3.3-.8.6-1.4.6s-1.2-.4-1.2-1.2v-2.7h.6v2.5c0,.7.3.9.8.9s.9-.3,1.1-.6v-2.8h.6v3.8h-.6Z"/>
  <path class="st0" d="M56.4,25.6c.7,0,1.1.3,1.4.7l-.4.4c-.3-.3-.6-.5-1-.5-.8,0-1.3.6-1.3,1.5s.5,1.5,1.3,1.5.7-.2,1-.5l.4.4c-.3.4-.7.7-1.4.7-1.1,0-1.9-.9-1.9-2s.8-2,1.9-2Z"/>
  <path class="st0" d="M58.5,28.7v-2.5h-.6v-.5h.6v-1h.6v1h.8v.5h-.8v2.4c0,.3.1.5.4.5s.3,0,.4-.2l.2.4c-.1.1-.4.2-.7.2-.6,0-.8-.3-.8-.9Z"/>
  <path class="st0" d="M66.4,29.4h-.8c-.2-.1-.4-.3-.6-.5-.4.4-.9.6-1.5.6s-1.6-.5-1.6-1.5.5-1.2,1.2-1.6c-.2-.4-.4-.8-.4-1.2,0-.7.6-1.2,1.3-1.2s1.2.4,1.2,1-.7,1.1-1.3,1.5c.2.3.4.5.6.7.2.2.4.5.6.7.3-.4.5-.9.6-1.2l.5.2c-.2.4-.4.9-.7,1.4.3.3.6.6,1,1ZM64.6,28.5c-.3-.3-.6-.6-.7-.8-.2-.3-.4-.5-.6-.8-.4.3-.8.6-.8,1.1s.5,1,1.1,1,.8-.2,1.1-.5ZM63.5,26.3c.6-.3,1-.6,1-1.1s-.3-.6-.6-.6-.7.3-.7.8.1.6.3.9Z"/>
  <path class="st0" d="M68.7,24.2h.7v3.2c0,1,.5,1.6,1.5,1.6s1.5-.6,1.5-1.6v-3.2h.7v3.2c0,1.3-.7,2.1-2.1,2.1s-2.1-.8-2.1-2.1v-3.2Z"/>
  <path class="st0" d="M77.5,29.4l-1.7-2.2-1.7,2.2h-.8l2-2.7-1.9-2.6h.8l1.6,2.1,1.5-2.1h.8l-1.9,2.5,2,2.7h-.8Z"/>
  <path class="st0" d="M83.2,29.4v-.6c-.3.4-.7.7-1.3.7-1,0-1.7-.8-1.7-2s.7-2,1.7-2,1,.3,1.3.7v-2h.6v5.2h-.6ZM83.2,26.7c-.2-.3-.7-.6-1.1-.6-.8,0-1.2.6-1.2,1.5s.5,1.5,1.2,1.5.9-.3,1.1-.6v-1.7Z"/>
  <path class="st0" d="M86.4,25.6c1.1,0,1.8.9,1.8,2h0c0,.1-3.1.1-3.1.1,0,.7.5,1.3,1.4,1.3s.9-.2,1.2-.5l.3.4c-.4.4-.9.6-1.5.6-1.1,0-1.9-.8-1.9-2s.8-2,1.9-2ZM85.1,27.3h2.5c0-.6-.4-1.3-1.2-1.3s-1.2.7-1.2,1.3Z"/>
  <path class="st0" d="M88.9,28.5c.3.3.7.5,1.2.5s.9-.3.9-.6-.5-.5-1-.7c-.6-.1-1.4-.3-1.4-1.1s.5-1.1,1.4-1.1,1.1.2,1.4.5l-.3.4c-.2-.3-.6-.5-1.1-.5s-.8.2-.8.6.4.5.9.6c.7.1,1.4.3,1.4,1.2s-.5,1.1-1.5,1.1-1.1-.2-1.5-.6l.3-.4Z"/>
  <path class="st0" d="M92.2,24.6c0-.2.2-.4.4-.4s.4.2.4.4-.2.4-.4.4-.4-.2-.4-.4ZM92.3,29.4v-3.8h.6v3.8h-.6Z"/>
  <path class="st0" d="M94,30c.3.4.7.5,1.2.5s1.2-.3,1.2-1.1v-.5c-.3.4-.7.7-1.3.7-1,0-1.7-.7-1.7-2s.7-2,1.7-2,1,.3,1.3.7v-.6h.6v3.7c0,1.3-.9,1.7-1.8,1.7s-1.1-.1-1.5-.6l.3-.4ZM96.5,26.7c-.2-.3-.7-.6-1.1-.6-.8,0-1.2.6-1.2,1.4s.5,1.4,1.2,1.4.9-.3,1.1-.6v-1.7Z"/>
  <path class="st0" d="M100.5,29.4v-2.5c0-.7-.3-.9-.8-.9s-.9.3-1.1.6v2.8h-.6v-3.8h.6v.6c.3-.3.8-.6,1.4-.6s1.2.4,1.2,1.2v2.7h-.6Z"/>
  <path class="st0" d="M103.7,25.6c1.1,0,1.8.9,1.8,2h0c0,.1-3.1.1-3.1.1,0,.7.5,1.3,1.4,1.3s.9-.2,1.2-.5l.3.4c-.4.4-.9.6-1.5.6-1.1,0-1.9-.8-1.9-2s.8-2,1.9-2ZM102.4,27.3h2.5c0-.6-.4-1.3-1.2-1.3s-1.2.7-1.2,1.3Z"/>
  <path class="st0" d="M106.2,29.4v-3.8h.6v.6c.3-.4.7-.7,1.3-.7v.6c0,0-.1,0-.2,0-.4,0-.9.3-1,.6v2.7h-.6Z"/>
  <path class="st0" d="M34.3,22.2c-.6-.2-1.3,0-1.5.7-1.3,3.4-6.4,4.9-10.7,4.9-1.8,0-3.4-.3-4.5-.7,3.3-.3,7.9-1.6,12.4-5.3,3.4-2.8,5.5-7.2,5.5-11.5,0-3.2-1.1-6-3.2-7.8-1.4-1.2-3.7-1.8-6.1-1.4-2.9.4-7.3,2.4-11.3,9-3.2,5.2-4.3,9.5-3.5,13.1.1.6.8,1.1,1.4.9.6-.1,1.1-.8.9-1.4-.7-3,.4-6.8,3.2-11.4,3.8-6.2,7.7-7.6,9.7-7.9,2-.3,3.5.3,4.2.8,1.6,1.4,2.4,3.5,2.4,6,0,3.6-1.8,7.3-4.7,9.6-5.3,4.4-10.5,5-13.9,4.8-.4,0-.8.1-1,.5s-.3.7-.2,1.1c1,2.8,5.1,3.9,8.7,3.9,0,0,.2,0,.3,0,5.2,0,11-2,12.7-6.5.2-.6,0-1.3-.7-1.5Z"/>
  <path class="st0" d="M12.5,27.7c-.7,0-1.2.5-1.2,1.2v.9c0,.7.5,1.2,1.2,1.2s1.2-.5,1.2-1.2v-.9c0-.7-.5-1.2-1.2-1.2Z"/>
</svg>