<?xml version="1.0" encoding="UTF-8"?>
<svg id="Layer_1" xmlns="http://www.w3.org/2000/svg" version="1.1" viewBox="0 0 32 32">
  <!-- Generator: Adobe Illustrator 30.3.0, SVG Export Plug-In . SVG Version: 2.1.3 Build 182)  -->
  <defs>
    <style>
      .st0 {
        fill: #ff2800;
      }
    </style>
  </defs>
  <path class="st0" d="M27,22.2c-.6-.2-1.3,0-1.5.7-1.3,3.4-6.4,4.9-10.7,4.9-1.8,0-3.4-.3-4.5-.7,3.3-.3,7.9-1.6,12.4-5.3,3.4-2.8,5.5-7.2,5.5-11.5,0-3.2-1.1-6-3.2-7.8-1.4-1.2-3.7-1.8-6.1-1.4-2.9.4-7.3,2.4-11.3,9-3.2,5.2-4.3,9.5-3.5,13.1.1.6.8,1.1,1.4.9.6-.1,1.1-.8.9-1.4-.7-3,.4-6.8,3.2-11.4,3.8-6.2,7.7-7.6,9.7-7.9,2-.3,3.5.3,4.2.8,1.6,1.4,2.4,3.5,2.4,6,0,3.6-1.8,7.3-4.7,9.6-5.3,4.4-10.5,5-13.9,4.8-.4,0-.8.1-1,.5s-.3.7-.2,1.1c1,2.8,5.1,3.9,8.7,3.9,0,0,.2,0,.3,0,5.2,0,11-2,12.7-6.5.2-.6,0-1.3-.7-1.5Z"/>
  <path class="st0" d="M5.2,27.7c-.7,0-1.2.5-1.2,1.2v.9c0,.7.5,1.2,1.2,1.2s1.2-.5,1.2-1.2v-.9c0-.7-.5-1.2-1.2-1.2Z"/>
</svg>